# xmcd CD database file
#
# Track frame offsets:
#	150
#	16742
#	34545
#	48000
#	65107
#	77510
#	108742
#	125892
#	147732
#	163740
#	178937
#	192460
#	209367
#	225705
#	244322
#	260782
#	277277
#	292287
#	309967
#	334857
#
# Disc length: 4757 seconds
#
# Revision: 0
# Processed by: cddbd v1.5.1PL2 Copyright (c) Steve Scherf et al.
# Submitted via: CD2WAV32(JP) R3.22
#
DISCID=44129314
DTITLE=Various Artist - No.1 MOTOWN
DYEAR=2004
DGENRE=Pop
TTITLE0=Ain't No Mountain High Enough - Diana Ross
TTITLE1=I'll Be There - Jackson 5
TTITLE2=The Tears Of A Clown - Smokey Robinson and The Miracles
TTITLE3=Just My Imagination - The Temptations
TTITLE4=Ben - Michael Jackson
TTITLE5=Papa Was A Rollin' Stone - The Temptations
TTITLE6=Touch Me In The Morning - Diana Ross
TTITLE7=Let's Get It On - Marvin Gaye
TTITLE8=Keep On Truckin' (Part 1) - Eddie Kendricks
TTITLE9=Theme From Mahogany (Do You Know Where You're Going To) - Diana Ross
TTITLE10=Love Machine (Part 1) - The Miracles
TTITLE11=Love Hangover - Diana Ross
TTITLE12=Don't Leave Me This Way - Thelma Houston
TTITLE13=Got To Give It Up (Part 1) - Marvin Gaye
TTITLE14=Three Times A Lady - Commodores
TTITLE15=Upside Down - Diana Ross
TTITLE16=Truly - Lionel Richie
TTITLE17=I'll Make Love To You - Boyz II Men
TTITLE18=On Bended Knee - Boyz II Men
TTITLE19=Four Seasons Of Loneliness - Boyz II Men
EXTD=
EXTT0=
EXTT1=
EXTT2=
EXTT3=
EXTT4=
EXTT5=
EXTT6=
EXTT7=
EXTT8=
EXTT9=
EXTT10=
EXTT11=
EXTT12=
EXTT13=
EXTT14=
EXTT15=
EXTT16=
EXTT17=
EXTT18=
EXTT19=
PLAYORDER=
